name C:/MyDriveSym/Projects/mobilecap/Data\Session20210819_0002\mocap\ForceDataProcessed\walking1_forces.mot
datacolumns 19
datarows 9
range 0.65450000 0.65850000
endheader 
time	R_ground_force_vx	R_ground_force_vy	R_ground_force_vz	R_ground_force_px	R_ground_force_py	R_ground_force_pz	R_ground_torque_x	R_ground_torque_y	R_ground_torque_z	L_ground_force_vx	L_ground_force_vy	L_ground_force_vz	L_ground_force_px	L_ground_force_py	L_ground_force_pz	L_ground_torque_x	L_ground_torque_y	L_ground_torque_z	
          0.65450000	         55.78776000	        174.17238200	         -1.23013700	          0.32406600	          0.00600000	         -0.16879700	          0.00000000	         -0.09734000	          0.00000000	        -86.37410700	        521.32062700	          8.31175200	          0.84501400	          0.00600000	         -0.28093700	          0.00000000	          0.66426600	          0.00000000	
          0.65500000	         55.28047700	        172.13553100	         -1.18195800	          0.32428100	          0.00600000	         -0.16876700	          0.00000000	         -0.09285500	          0.00000000	        -86.53549800	        522.83530800	          8.47526900	          0.84513800	          0.00600000	         -0.28096600	          0.00000000	          0.66238900	          0.00000000	
          0.65550000	         54.77372300	        170.10858800	         -1.13441300	          0.32449800	          0.00600000	         -0.16873700	          0.00000000	         -0.08842000	          0.00000000	        -86.69347900	        524.34118200	          8.63867100	          0.84526200	          0.00600000	         -0.28099500	          0.00000000	          0.66050800	          0.00000000	
          0.65600000	         54.26755300	        168.09164100	         -1.08750000	          0.32471600	          0.00600000	         -0.16870600	          0.00000000	         -0.08403400	          0.00000000	        -86.84805000	        525.83820200	          8.80194600	          0.84538500	          0.00600000	         -0.28102400	          0.00000000	          0.65862400	          0.00000000	
          0.65650000	         53.76202200	        166.08477600	         -1.04121300	          0.32493700	          0.00600000	         -0.16867500	          0.00000000	         -0.07969700	          0.00000000	        -86.99920800	        527.32631900	          8.96508000	          0.84550800	          0.00600000	         -0.28105200	          0.00000000	          0.65673700	          0.00000000	
          0.65700000	         53.25718400	        164.08807900	         -0.99554900	          0.32516000	          0.00600000	         -0.16864300	          0.00000000	         -0.07541000	          0.00000000	        -87.14695400	        528.80548500	          9.12806100	          0.84563000	          0.00600000	         -0.28108100	          0.00000000	          0.65484800	          0.00000000	
          0.65750000	         52.75309200	        162.10163400	         -0.95050500	          0.32538400	          0.00600000	         -0.16861100	          0.00000000	         -0.07117100	          0.00000000	        -87.29128600	        530.27565300	          9.29087700	          0.84575100	          0.00600000	         -0.28111000	          0.00000000	          0.65295700	          0.00000000	
          0.65800000	         52.24980000	        160.12552200	         -0.90607500	          0.32561100	          0.00600000	         -0.16857800	          0.00000000	         -0.06698000	          0.00000000	        -87.43220500	        531.73677500	          9.45351400	          0.84587200	          0.00600000	         -0.28113900	          0.00000000	          0.65106600	          0.00000000	
          0.65850000	         51.74735800	        158.15982400	         -0.86225600	          0.32584100	          0.00600000	         -0.16854400	          0.00000000	         -0.06283800	          0.00000000	        -87.56971200	        533.18880600	          9.61596200	          0.84599300	          0.00600000	         -0.28116700	          0.00000000	          0.64917300	          0.00000000	
